<svg width="25" height="25" viewBox="0 0 25 25" fill="none" xmlns="http://www.w3.org/2000/svg">
<g clip-path="url(#clip0_106_1433)">
<path d="M0.0488281 19.0918C0.0488281 12.7471 0.0488281 6.40244 0.0488281 0.0532957C8.38216 0.0532957 16.7155 0.0532958 25.0488 0.0529785C25.0488 0.475641 25.0488 0.898621 25.0326 1.34052C24.7127 1.00512 24.5091 0.986099 24.1103 1.2282C24.0879 1.24043 24.0786 1.25455 24.0708 1.26906C24.0722 1.26945 24.0711 1.26669 24.0534 1.26829C23.9817 1.30251 23.9283 1.33618 23.8736 1.36759C22.5674 2.11749 21.2585 2.8629 19.9553 3.61803C18.5899 4.40921 17.2322 5.21374 15.8668 6.00491C14.5635 6.76006 13.2527 7.50213 11.9488 8.25625C10.776 8.93457 9.6098 9.62434 8.43761 10.3038C7.14121 11.0552 5.83948 11.7975 4.54475 12.5517C4.33133 12.6761 4.15437 12.8523 4.20099 13.1381C4.24349 13.3986 4.39489 13.5472 4.65476 13.6327C5.99934 14.0753 7.3377 14.5368 8.68054 14.9848C9.2986 15.191 9.92195 15.3813 10.5452 15.5975C10.5635 15.6606 10.5806 15.7048 10.5956 15.7497C11.2305 17.6523 11.869 19.5537 12.4973 21.4585C12.6562 21.9401 13.1532 22.153 13.5405 21.6789C13.5591 21.6591 13.5659 21.6442 13.5734 21.6301C13.5742 21.6309 13.5724 21.6296 13.5879 21.6234C14.3174 20.6619 15.0335 19.7082 15.7445 18.7507C15.9717 18.4446 16.1856 18.1286 16.4247 17.8171C17.3893 18.2162 18.3359 18.6128 19.28 19.0151C19.8952 19.2771 20.5063 19.5487 21.1203 19.8136C21.4744 19.9663 21.8526 19.8144 21.9414 19.3931C21.9905 19.1596 22.0294 18.9239 22.0698 18.6886C22.2506 17.6364 22.425 16.5829 22.6121 15.5318C22.7823 14.5756 22.9728 13.6231 23.1415 12.6666C23.3145 11.6856 23.4671 10.701 23.6375 9.71944C23.7927 8.82512 23.9591 7.93275 24.1215 7.03968C24.2483 6.34257 24.3803 5.64639 24.5027 4.94853C24.6088 4.34402 24.699 3.73672 24.8071 3.13258C24.8777 2.73765 24.9676 2.34617 25.0488 1.95314C25.0488 9.64867 25.0488 17.3442 25.0488 25.0443C16.7155 25.0443 8.38216 25.0443 0.0488281 25.0443C0.0488281 23.2375 0.0488281 21.4316 0.0651134 19.6076C0.347877 19.8559 0.622933 20.1142 0.878329 20.3907C1.11537 20.6474 1.51836 20.6141 1.69116 20.4504C1.92478 20.2291 1.91577 19.8759 1.66989 19.616C1.52472 19.4625 1.37949 19.3078 1.2212 19.1685C1.07224 19.0374 0.922416 18.8813 0.743785 18.8158C0.458536 18.7113 0.224358 18.8564 0.0488281 19.0918ZM6.7468 23.811C7.38596 23.9851 8.03954 24.031 8.69799 24.0217C8.98988 24.0176 9.24344 23.7466 9.22558 23.4548C9.20875 23.1798 9.01907 22.9254 8.68453 22.9476C8.55526 22.9562 8.4238 22.9566 8.29504 22.9437C7.86618 22.9009 7.43893 22.8394 7.00942 22.8068C6.7403 22.7863 6.56867 22.9183 6.49591 23.1483C6.41562 23.402 6.49937 23.6399 6.7468 23.811ZM4.45071 22.9804C4.49844 22.9873 4.54708 22.9904 4.59376 23.0017C4.84954 23.0634 5.05266 22.9653 5.17022 22.7209C5.28024 22.4922 5.22839 22.1967 5.03496 22.074C4.54531 21.7634 4.05332 21.4558 3.55341 21.1621C3.27972 21.0014 2.96283 21.0958 2.79468 21.3577C2.65937 21.5685 2.72826 21.925 2.973 22.0817C3.44769 22.3856 3.93784 22.6653 4.45071 22.9804ZM12.5384 22.6423C12.5854 22.3734 12.5202 22.1382 12.2851 21.9889C12.0737 21.8546 11.8559 21.9188 11.6473 22.0285C11.3722 22.1731 11.0934 22.3109 10.8173 22.4537C10.6061 22.5629 10.5169 22.7517 10.5537 22.9727C10.5909 23.1962 10.6953 23.4261 10.9569 23.4277C11.1717 23.429 11.4004 23.3707 11.5994 23.2845C11.9376 23.1381 12.304 23.0176 12.5384 22.6423Z" fill="white"/>
<path d="M25.0488 1.93481C24.9676 2.34615 24.8777 2.73764 24.8071 3.13257C24.699 3.7367 24.6088 4.344 24.5027 4.94851C24.3803 5.64638 24.2483 6.34256 24.1215 7.03966C23.9591 7.93273 23.7926 8.8251 23.6374 9.71942C23.4671 10.701 23.3145 11.6856 23.1414 12.6666C22.9728 13.623 22.7823 14.5756 22.6121 15.5318C22.425 16.5829 22.2506 17.6363 22.0698 18.6886C22.0294 18.9238 21.9905 19.1596 21.9414 19.393C21.8526 19.8143 21.4744 19.9663 21.1203 19.8136C20.5063 19.5487 19.8952 19.2771 19.28 19.015C18.3359 18.6128 17.3893 18.2162 16.4227 17.8002C16.3701 17.7613 16.341 17.7333 16.3064 17.7183C15.7046 17.4574 15.1021 17.1981 14.5073 16.9239C14.5755 16.8233 14.6363 16.7375 14.6964 16.6513C15.7019 15.2095 16.7079 13.768 17.7125 12.3257C18.9857 10.4978 20.2587 8.66988 21.5299 6.84074C22.4962 5.45053 23.4586 4.05765 24.4252 2.66769C24.6275 2.37679 24.8406 2.09346 25.0488 1.80664C25.0488 1.84326 25.0488 1.87988 25.0488 1.93481Z" fill="#2196F3"/>
<path d="M25.0488 1.78469C24.8407 2.09348 24.6275 2.37681 24.4252 2.66771C23.4586 4.05768 22.4962 5.45055 21.53 6.84076C20.2587 8.6699 18.9857 10.4979 17.7125 12.3257C16.7079 13.7681 15.7019 15.2095 14.6964 16.6513C14.6363 16.7375 14.5755 16.8233 14.4934 16.9371C14.263 18.0137 14.0511 19.0617 13.8465 20.1112C13.7481 20.6159 13.6634 21.1234 13.5725 21.6296C13.5725 21.6296 13.5742 21.6309 13.5617 21.6349C13.5424 21.6539 13.5356 21.6689 13.5287 21.6838C13.1532 22.153 12.6562 21.9401 12.4973 21.4585C11.869 19.5537 11.2305 17.6523 10.5956 15.7497C10.5806 15.7048 10.5635 15.6606 10.5601 15.5904C11.086 15.0227 11.5992 14.4807 12.1125 13.9388C12.6986 13.32 13.2847 12.7011 13.8711 12.0826C14.4744 11.4464 15.0782 10.8107 15.6814 10.1744C16.2678 9.55591 16.8537 8.93685 17.4401 8.31833C18.0434 7.68209 18.6472 7.04643 19.2503 6.41013C19.8311 5.79745 20.4096 5.18257 20.9923 4.57173C21.7547 3.77256 22.5209 2.97706 23.284 2.17859C23.525 1.92635 23.7629 1.67102 23.9983 1.41349C24.0337 1.37474 24.0474 1.31612 24.0711 1.2667C24.0711 1.2667 24.0722 1.26945 24.0819 1.26615C24.1057 1.2553 24.1163 1.24438 24.1234 1.2301C24.5091 0.986103 24.7127 1.00512 25.0326 1.36332C25.0488 1.49905 25.0488 1.63088 25.0488 1.78469Z" fill="#1976D2"/>
<path d="M0.0488281 19.114C0.224358 18.8563 0.458536 18.7112 0.743785 18.8158C0.922416 18.8812 1.07224 19.0373 1.2212 19.1684C1.37949 19.3077 1.52472 19.4625 1.66989 19.616C1.91577 19.8759 1.92478 20.229 1.69116 20.4504C1.51836 20.6141 1.11537 20.6474 0.878329 20.3907C0.622933 20.1142 0.347877 19.8558 0.0651134 19.5848C0.0488281 19.4321 0.0488281 19.2841 0.0488281 19.114Z" fill="#1976D2"/>
<path d="M24.0534 1.26825C24.0474 1.31608 24.0337 1.37469 23.9983 1.41344C23.7629 1.67098 23.525 1.92631 23.284 2.17854C22.5209 2.97701 21.7547 3.77251 20.9923 4.57168C20.4096 5.18252 19.8311 5.7974 19.2503 6.41009C18.6472 7.04638 18.0434 7.68205 17.4401 8.31828C16.8537 8.93681 16.2678 9.55587 15.6814 10.1744C15.0782 10.8106 14.4744 11.4463 13.8712 12.0826C13.2847 12.7011 12.6986 13.3199 12.1125 13.9387C11.5992 14.4806 11.0861 15.0227 10.5579 15.5717C9.92196 15.3813 9.29861 15.1909 8.68055 14.9848C7.33771 14.5368 5.99935 14.0753 4.65477 13.6327C4.3949 13.5471 4.2435 13.3986 4.201 13.138C4.15438 12.8522 4.33134 12.676 4.54476 12.5517C5.83949 11.7974 7.14122 11.0552 8.43762 10.3037C9.60981 9.6243 10.776 8.93453 11.9488 8.2562C13.2527 7.50208 14.5635 6.76001 15.8668 6.00486C17.2322 5.21369 18.5899 4.40916 19.9553 3.61798C21.2585 2.86286 22.5674 2.11745 23.8736 1.36755C23.9283 1.33614 23.9817 1.30247 24.0534 1.26825Z" fill="#2196F3"/>
<path d="M13.5879 21.6233C13.6634 21.1233 13.7481 20.6159 13.8465 20.1112C14.0511 19.0617 14.263 18.0136 14.4858 16.9517C15.1021 17.1981 15.7046 17.4574 16.3064 17.7183C16.3411 17.7333 16.3701 17.7613 16.4037 17.8001C16.1856 18.1285 15.9717 18.4445 15.7445 18.7506C15.0335 19.7081 14.3174 20.6619 13.5879 21.6233Z" fill="#64B5F6"/>
<path d="M6.73315 23.7971C6.49939 23.6399 6.41564 23.402 6.49593 23.1483C6.56869 22.9183 6.74032 22.7863 7.00944 22.8068C7.43895 22.8394 7.8662 22.9009 8.29506 22.9437C8.42382 22.9566 8.55528 22.9562 8.68455 22.9476C9.01909 22.9254 9.20877 23.1798 9.2256 23.4548C9.24346 23.7466 8.9899 24.0176 8.69801 24.0217C8.03956 24.031 7.38598 23.9851 6.73315 23.7971Z" fill="#1976D2"/>
<path d="M4.43616 22.9677C3.93786 22.6653 3.4477 22.3856 2.97302 22.0817C2.72827 21.925 2.65938 21.5685 2.7947 21.3577C2.96284 21.0957 3.27973 21.0013 3.55342 21.1621C4.05333 21.4558 4.54533 21.7633 5.03498 22.074C5.2284 22.1967 5.28025 22.4922 5.17023 22.7209C5.05267 22.9652 4.84955 23.0634 4.59377 23.0016C4.54709 22.9904 4.49845 22.9872 4.43616 22.9677Z" fill="#1976D2"/>
<path d="M12.5249 22.6564C12.3041 23.0176 11.9376 23.1381 11.5994 23.2845C11.4004 23.3707 11.1718 23.429 10.9569 23.4277C10.6953 23.4261 10.5909 23.1962 10.5537 22.9727C10.517 22.7517 10.6061 22.5629 10.8173 22.4537C11.0935 22.3109 11.3722 22.1731 11.6474 22.0284C11.8559 21.9188 12.0737 21.8546 12.2852 21.9889C12.5202 22.1382 12.5854 22.3734 12.5249 22.6564Z" fill="#1976D2"/>
<path d="M24.1103 1.22821C24.1163 1.24439 24.1057 1.25531 24.0805 1.26578C24.0786 1.25456 24.0879 1.24044 24.1103 1.22821Z" fill="#2196F3"/>
<path d="M13.5405 21.6789C13.5356 21.6689 13.5424 21.6539 13.561 21.6342C13.5659 21.6442 13.5591 21.6591 13.5405 21.6789Z" fill="#64B5F6"/>
</g>
<defs>
<clipPath id="clip0_106_1433">
<rect width="25" height="25" fill="white"/>
</clipPath>
</defs>
</svg>
