<svg width="24" height="24" viewBox="0 0 24 24" fill="none" xmlns="http://www.w3.org/2000/svg">
<g clip-path="url(#clip0_106_1394)">
<rect width="23.36" height="24" fill="white"/>
<path d="M15.0708 14.4805L14.6195 14.0168C14.4752 13.8686 14.2415 13.8686 14.0973 14.0168C13.9532 14.1649 13.9532 14.4051 14.0973 14.5532L14.5487 15.0168C14.6207 15.0909 14.7152 15.128 14.8097 15.128C14.9042 15.128 14.9987 15.091 15.0708 15.0168C15.215 14.8688 15.215 14.6285 15.0708 14.4805Z" fill="#B9BCBE"/>
<path d="M10.7127 17.4213L10.2614 16.9577C10.1172 16.8095 9.8834 16.8095 9.73927 16.9577C9.59505 17.1058 9.59505 17.346 9.73927 17.4941L10.1906 17.9577C10.2627 18.0318 10.3572 18.0689 10.4517 18.0689C10.5461 18.0689 10.6406 18.0318 10.7127 17.9577C10.8569 17.8097 10.8569 17.5695 10.7127 17.4213Z" fill="#B9BCBE"/>
<path d="M12.8823 15.9412L12.431 15.4775C12.2868 15.3294 12.053 15.3294 11.9089 15.4775C11.7647 15.6257 11.7647 15.8659 11.9089 16.014L12.3602 16.4776C12.4323 16.5517 12.5268 16.5888 12.6213 16.5888C12.7158 16.5888 12.8103 16.5517 12.8823 16.4776C13.0265 16.3295 13.0265 16.0893 12.8823 15.9412Z" fill="#B9BCBE"/>
<path d="M23.36 7.54217C23.36 6.21486 22.8568 4.96695 21.9433 4.02837C20.0575 2.09084 16.9891 2.09089 15.1033 4.02837L13.7758 5.39225C13.5683 5.32559 13.356 5.27895 13.1418 5.25219C12.0184 4.58436 10.5863 4.47401 9.40683 4.95219L8.25685 3.77065C7.3433 2.83208 6.12867 2.31519 4.8368 2.31519C3.54493 2.31519 2.33016 2.83212 1.4167 3.77065C0.503107 4.70923 0 5.95709 0 7.2844C0 8.61172 0.503107 9.85958 1.41661 10.7982L4.52983 13.9967C4.45765 14.0498 4.38862 14.1093 4.32384 14.1758L3.87251 14.6395C3.56172 14.9588 3.39048 15.3834 3.39048 15.835C3.39048 16.2866 3.56172 16.7112 3.87251 17.0305C4.18331 17.3499 4.59658 17.5257 5.03613 17.5257C5.09294 17.5257 5.14933 17.5227 5.20513 17.5168C5.15667 18.0054 5.31408 18.5116 5.67762 18.8851C5.99846 19.2147 6.41989 19.3795 6.84129 19.3795C6.97082 19.3795 7.1003 19.3638 7.22686 19.3327C7.23193 19.7767 7.40229 20.1934 7.70839 20.5078C8.01919 20.8272 8.43246 21.0031 8.87201 21.0031C9.06993 21.0031 9.26242 20.9671 9.44269 20.8988L9.70038 21.1635C10.0362 21.5085 10.4828 21.6849 10.9242 21.6849C11.2912 21.6849 11.6547 21.5629 11.9476 21.3144C12.3002 21.0152 12.5171 20.5783 12.5453 20.1127C13.0772 20.2956 13.677 20.2078 14.1173 19.8343C14.4668 19.5378 14.683 19.106 14.7142 18.645C15.2509 18.8368 15.8599 18.7517 16.3056 18.3735C16.6556 18.0765 16.8719 17.6441 16.9027 17.1824C17.4387 17.3729 18.0463 17.2873 18.4912 16.9098C18.8499 16.6054 19.0682 16.1586 19.0902 15.6839C19.1114 15.2262 18.9492 14.7778 18.6446 14.4451L21.9433 11.056C22.8569 10.1174 23.36 8.86948 23.36 7.54217ZM5.03622 16.767C4.79391 16.767 4.5661 16.67 4.39474 16.494C4.04101 16.1306 4.04101 15.5393 4.39474 15.1759L4.84606 14.7122C5.02295 14.5305 5.25522 14.4397 5.48755 14.4397C5.71982 14.4397 5.95219 14.5305 6.12903 14.7122C6.48277 15.0756 6.48277 15.6669 6.12903 16.0303L5.67771 16.494C5.50634 16.6701 5.27854 16.767 5.03622 16.767ZM7.48282 18.3486C7.12909 18.712 6.55358 18.712 6.19984 18.3486C5.84611 17.9852 5.84611 17.3939 6.19984 17.0305C6.55358 16.667 7.12909 16.6671 7.48282 17.0305C7.83655 17.3939 7.83655 17.9852 7.48282 18.3486ZM9.51363 19.9714C9.34231 20.1474 9.11446 20.2444 8.87215 20.2444C8.62983 20.2444 8.40203 20.1475 8.23066 19.9714C8.05934 19.7953 7.96494 19.5612 7.96494 19.3123C7.96494 19.0633 8.05934 18.8293 8.23066 18.6532C8.40198 18.4772 8.62983 18.3802 8.87215 18.3802C9.11446 18.3802 9.34227 18.4772 9.51363 18.6532C9.685 18.8292 9.77935 19.0633 9.77935 19.3123C9.77931 19.5612 9.68496 19.7953 9.51363 19.9714ZM18.0211 16.3247C17.6662 16.6257 17.1151 16.5808 16.7662 16.2224L16.4246 15.8714L15.9734 15.4077C15.8291 15.2595 15.5954 15.2596 15.4512 15.4077C15.3071 15.5559 15.3071 15.7961 15.4512 15.9442L15.9025 16.4078C16.0829 16.5931 16.1794 16.8496 16.1672 17.1116C16.1549 17.3771 16.0371 17.6174 15.8356 17.7884C15.4808 18.0896 14.9296 18.0445 14.5808 17.6862L14.2363 17.3322L13.785 16.8686C13.6408 16.7204 13.407 16.7204 13.2629 16.8686C13.1187 17.0167 13.1187 17.2569 13.2629 17.405L13.7142 17.8687C13.8945 18.054 13.991 18.3104 13.9789 18.5724C13.9665 18.8379 13.8488 19.0782 13.6473 19.2493C13.2924 19.5503 12.7413 19.5054 12.3924 19.147L12.0667 18.8123L11.6154 18.3486C11.4712 18.2004 11.2374 18.2005 11.0933 18.3486C10.9491 18.4968 10.9491 18.737 11.0933 18.885L11.5443 19.3484C11.5444 19.3485 11.5444 19.3485 11.5445 19.3486C11.7249 19.5339 11.8213 19.7904 11.8092 20.0524C11.7969 20.3179 11.6791 20.5582 11.4776 20.7293C11.1228 21.0304 10.5717 20.9854 10.2228 20.627L10.0704 20.4705C10.3592 20.1558 10.5179 19.7467 10.5179 19.3123C10.5179 18.8607 10.3467 18.4361 10.0359 18.1168C9.72506 17.7974 9.31179 17.6216 8.87224 17.6216C8.74034 17.6216 8.6109 17.6377 8.48589 17.6685C8.48078 17.2425 8.32077 16.8183 8.00513 16.494C7.7276 16.2089 7.37478 16.0474 7.01179 16.0089C7.25291 15.398 7.13278 14.6705 6.65126 14.1758C6.27782 13.7922 5.76819 13.6323 5.28087 13.6952L1.93893 10.2617C1.16476 9.46639 0.738486 8.40908 0.738486 7.28445C0.738486 6.15983 1.16476 5.10242 1.93883 4.30719C2.71286 3.51186 3.74203 3.07395 4.83671 3.07395C5.93139 3.07395 6.96055 3.5119 7.73458 4.30719L9.06222 5.6713C9.17291 5.78501 9.34126 5.81459 9.48247 5.74536C10.0855 5.4493 10.7886 5.35395 11.4695 5.4522C11.0027 5.62939 10.5649 5.90928 10.1905 6.29384L7.9341 8.61209C7.29247 9.2713 7.29247 10.3439 7.9341 11.0031C8.25493 11.3328 8.67623 11.4976 9.09772 11.4976C9.51906 11.4976 9.94059 11.3327 10.2614 11.0031L12.2567 8.95316L18.0879 14.9442C18.2683 15.1294 18.3647 15.3859 18.3526 15.6479C18.3403 15.9133 18.2226 16.1537 18.0211 16.3247ZM18.1234 13.9076L12.7789 8.41667L12.9691 8.22125C13.1133 8.07308 13.1133 7.83289 12.9691 7.68481C12.8249 7.53669 12.5911 7.53669 12.447 7.68481L9.73925 10.4667C9.38552 10.8301 8.80996 10.8301 8.45627 10.4667C8.10254 10.1033 8.10254 9.512 8.45627 9.14858L10.7127 6.83033C11.813 5.69998 13.6031 5.69998 14.7034 6.83033C14.8476 6.97845 15.0814 6.97845 15.2255 6.83033C15.3697 6.68215 15.3697 6.44197 15.2255 6.29389C15.0039 6.06617 14.7599 5.87525 14.5009 5.72023L15.6254 4.56495C17.2233 2.92334 19.8233 2.9233 21.4212 4.56495C23.0191 6.20661 23.0191 8.87783 21.4212 10.5195L18.1234 13.9076Z" fill="#B9BCBE"/>
</g>
<defs>
<clipPath id="clip0_106_1394">
<rect width="23.36" height="24" fill="white"/>
</clipPath>
</defs>
</svg>
