<svg width="25" height="24" viewBox="0 0 25 24" fill="none" xmlns="http://www.w3.org/2000/svg">
<path d="M11.1368 0.303248C9.55666 1.00719 8.54376 2.47374 8.09808 4.70289C7.61188 7.40134 7.97653 9.4545 9.35408 11.449C10.367 12.9156 10.8937 13.2089 12.5143 13.2089C14.1755 13.2089 14.6617 12.9156 15.7151 11.3903C16.9306 9.63049 17.1737 8.51591 17.0117 5.64148C16.8901 3.70564 15.5126 1.06585 14.4186 0.596558C12.6764 -0.107385 12.3118 -0.166047 11.1368 0.303248ZM14.8238 3.35367C16.8901 6.16944 15.4315 11.449 12.5549 11.449C10.6506 11.449 9.27305 9.57183 9.27305 6.81472C9.27305 2.59106 12.6764 0.420572 14.8238 3.35367Z" fill="#B9BCBE"/>
<path d="M3.96545 4.93755C1.98015 7.81199 2.54738 12.329 5.14042 14.1475C6.15333 14.8514 6.88262 14.9687 7.73346 14.6168C9.39463 13.9128 8.98947 12.8569 7.16623 13.0916C5.26197 13.3849 4.00597 11.6837 4.00597 8.8679C4.00597 6.8734 4.45165 6.11079 6.68004 3.99896C7.36882 3.35368 7.3283 3.29502 6.31539 3.29502C5.54558 3.23636 4.73526 3.82298 3.96545 4.93755Z" fill="#B9BCBE"/>
<path d="M18.3488 3.99898C20.5771 6.1108 21.0228 6.87341 21.0228 8.86791C21.0228 11.7423 19.7668 13.3262 17.7815 13.0916C15.8367 12.8569 15.5937 13.8542 17.3764 14.6168C19.8479 15.6727 22.2383 12.6223 22.2383 8.45728C22.2383 6.05214 20.2935 3.23637 18.7134 3.29503C17.7005 3.29503 17.66 3.3537 18.3488 3.99898Z" fill="#B9BCBE"/>
<path d="M8.66534 17.2565C7.12572 18.2538 4.41113 22.0082 4.41113 23.1814C4.41113 24.5893 5.22146 24.12 6.23436 22.2428C6.84211 21.0696 8.09811 19.603 9.02999 19.0164C12.4334 16.7872 16.647 18.1951 18.7944 22.2428C19.8073 24.12 20.6176 24.5893 20.6176 23.1814C20.6176 22.0082 17.903 18.2538 16.3634 17.2565C14.2566 15.8487 10.7722 15.8487 8.66534 17.2565Z" fill="#B9BCBE"/>
<path d="M2.58791 18.7231C0.926741 20.1896 -0.410296 22.8294 0.116416 23.592C0.237964 23.8266 0.886224 23.1814 1.53448 22.1841C2.14223 21.1869 3.23617 19.955 3.92494 19.427C5.22146 18.4298 5.66714 17.3152 4.73527 17.3152C4.45165 17.3152 3.47926 17.9605 2.58791 18.7231Z" fill="#B9BCBE"/>
<path d="M19.8073 17.9019C19.8073 18.1952 20.5366 19.0165 21.3874 19.6031C22.2383 20.2484 23.3322 21.5389 23.7779 22.4189C24.7503 24.4134 25.439 23.8267 24.6692 21.6563C23.7779 19.3098 19.8073 16.2594 19.8073 17.9019Z" fill="#B9BCBE"/>
</svg>
