<svg width="24" height="20" viewBox="0 0 24 20" fill="none" xmlns="http://www.w3.org/2000/svg">
<path d="M23.36 5.54217C23.36 4.21486 22.8568 2.96695 21.9433 2.02837C20.0575 0.090842 16.9891 0.0908888 15.1033 2.02837L13.7758 3.39225C13.5683 3.32559 13.356 3.27895 13.1418 3.25219C12.0184 2.58436 10.5863 2.47401 9.40683 2.95219L8.25685 1.77065C7.3433 0.832076 6.12867 0.315186 4.8368 0.315186C3.54493 0.315186 2.33016 0.832123 1.4167 1.77065C0.503107 2.70923 0 3.95709 0 5.2844C0 6.61172 0.503107 7.85958 1.41661 8.79815L4.52983 11.9967C4.45765 12.0498 4.38862 12.1093 4.32384 12.1758L3.87251 12.6395C3.56172 12.9588 3.39048 13.3834 3.39048 13.835C3.39048 14.2866 3.56172 14.7112 3.87251 15.0305C4.18331 15.3499 4.59658 15.5257 5.03613 15.5257C5.09294 15.5257 5.14933 15.5227 5.20513 15.5168C5.15667 16.0054 5.31408 16.5116 5.67762 16.8851C5.99846 17.2147 6.41989 17.3795 6.84129 17.3795C6.97082 17.3795 7.1003 17.3638 7.22686 17.3327C7.23193 17.7767 7.40229 18.1934 7.70839 18.5078C8.01919 18.8272 8.43246 19.0031 8.87201 19.0031C9.06993 19.0031 9.26242 18.9671 9.44269 18.8988L9.70038 19.1635C10.0362 19.5085 10.4828 19.6849 10.9242 19.6849C11.2912 19.6849 11.6547 19.5629 11.9476 19.3144C12.3002 19.0152 12.5171 18.5783 12.5453 18.1127C13.0772 18.2956 13.677 18.2078 14.1173 17.8343C14.4668 17.5378 14.683 17.106 14.7142 16.645C15.2509 16.8368 15.8599 16.7517 16.3056 16.3735C16.6556 16.0765 16.8719 15.6441 16.9027 15.1824C17.4387 15.3729 18.0463 15.2873 18.4912 14.9098C18.8499 14.6054 19.0682 14.1586 19.0902 13.6839C19.1114 13.2262 18.9492 12.7778 18.6446 12.4451L21.9433 9.05601C22.8569 8.11739 23.36 6.86948 23.36 5.54217ZM5.03622 14.767C4.79391 14.767 4.5661 14.67 4.39474 14.494C4.04101 14.1306 4.04101 13.5393 4.39474 13.1759L4.84606 12.7122C5.02295 12.5305 5.25522 12.4397 5.48755 12.4397C5.71982 12.4397 5.95219 12.5305 6.12903 12.7122C6.48277 13.0756 6.48277 13.6669 6.12903 14.0303L5.67771 14.494C5.50634 14.6701 5.27854 14.767 5.03622 14.767ZM7.48282 16.3486C7.12909 16.712 6.55358 16.712 6.19984 16.3486C5.84611 15.9852 5.84611 15.3939 6.19984 15.0305C6.55358 14.667 7.12909 14.6671 7.48282 15.0305C7.83655 15.3939 7.83655 15.9852 7.48282 16.3486ZM9.51363 17.9714C9.34231 18.1474 9.11446 18.2444 8.87215 18.2444C8.62983 18.2444 8.40203 18.1475 8.23066 17.9714C8.05934 17.7953 7.96494 17.5612 7.96494 17.3123C7.96494 17.0633 8.05934 16.8293 8.23066 16.6532C8.40198 16.4772 8.62983 16.3802 8.87215 16.3802C9.11446 16.3802 9.34227 16.4772 9.51363 16.6532C9.685 16.8292 9.77935 17.0633 9.77935 17.3123C9.77931 17.5612 9.68496 17.7953 9.51363 17.9714ZM18.0211 14.3247C17.6662 14.6257 17.1151 14.5808 16.7662 14.2224L16.4246 13.8714L15.9734 13.4077C15.8291 13.2595 15.5954 13.2596 15.4512 13.4077C15.3071 13.5559 15.3071 13.7961 15.4512 13.9442L15.9025 14.4078C16.0829 14.5931 16.1794 14.8496 16.1672 15.1116C16.1549 15.3771 16.0371 15.6174 15.8356 15.7884C15.4808 16.0896 14.9296 16.0445 14.5808 15.6862L14.2363 15.3322L13.785 14.8686C13.6408 14.7204 13.407 14.7204 13.2629 14.8686C13.1187 15.0167 13.1187 15.2569 13.2629 15.405L13.7142 15.8687C13.8945 16.054 13.991 16.3104 13.9789 16.5724C13.9665 16.8379 13.8488 17.0782 13.6473 17.2493C13.2924 17.5503 12.7413 17.5054 12.3924 17.147L12.0667 16.8123L11.6154 16.3486C11.4712 16.2004 11.2374 16.2005 11.0933 16.3486C10.9491 16.4968 10.9491 16.737 11.0933 16.885L11.5443 17.3484C11.5444 17.3485 11.5444 17.3485 11.5445 17.3486C11.7249 17.5339 11.8213 17.7904 11.8092 18.0524C11.7969 18.3179 11.6791 18.5582 11.4776 18.7293C11.1228 19.0304 10.5717 18.9854 10.2228 18.627L10.0704 18.4705C10.3592 18.1558 10.5179 17.7467 10.5179 17.3123C10.5179 16.8607 10.3467 16.4361 10.0359 16.1168C9.72506 15.7974 9.31179 15.6216 8.87224 15.6216C8.74034 15.6216 8.6109 15.6377 8.48589 15.6685C8.48078 15.2425 8.32077 14.8183 8.00513 14.494C7.7276 14.2089 7.37478 14.0474 7.01179 14.0089C7.25291 13.398 7.13278 12.6705 6.65126 12.1758C6.27782 11.7922 5.76819 11.6323 5.28087 11.6952L1.93893 8.26167C1.16476 7.46639 0.738486 6.40908 0.738486 5.28445C0.738486 4.15983 1.16476 3.10242 1.93883 2.30719C2.71286 1.51186 3.74203 1.07395 4.83671 1.07395C5.93139 1.07395 6.96055 1.5119 7.73458 2.30719L9.06222 3.6713C9.17291 3.78501 9.34126 3.81459 9.48247 3.74536C10.0855 3.4493 10.7886 3.35395 11.4695 3.4522C11.0027 3.62939 10.5649 3.90928 10.1905 4.29384L7.9341 6.61209C7.29247 7.2713 7.29247 8.34389 7.9341 9.00314C8.25493 9.33276 8.67623 9.49758 9.09772 9.49758C9.51906 9.49758 9.94059 9.33272 10.2614 9.00314L12.2567 6.95316L18.0879 12.9442C18.2683 13.1294 18.3647 13.3859 18.3526 13.6479C18.3403 13.9133 18.2226 14.1537 18.0211 14.3247ZM18.1234 11.9076L12.7789 6.41667L12.9691 6.22125C13.1133 6.07308 13.1133 5.83289 12.9691 5.68481C12.8249 5.53669 12.5911 5.53669 12.447 5.68481L9.73925 8.4667C9.38552 8.83012 8.80996 8.83008 8.45627 8.4667C8.10254 8.10328 8.10254 7.512 8.45627 7.14858L10.7127 4.83033C11.813 3.69998 13.6031 3.69998 14.7034 4.83033C14.8476 4.97845 15.0814 4.97845 15.2255 4.83033C15.3697 4.68215 15.3697 4.44197 15.2255 4.29389C15.0039 4.06617 14.7599 3.87525 14.5009 3.72023L15.6254 2.56495C17.2233 0.923342 19.8233 0.923295 21.4212 2.56495C23.0191 4.20661 23.0191 6.87783 21.4212 8.51953L18.1234 11.9076Z" fill="#B9BCBE"/>
</svg>
